# xmcd
#
# Track frame offsets:
#	183
#	18605
#	38055
#	54525
#	68213
#	82845
#	104975
#	127320
#	148263
#	171663
#
# Disc length: 2482 seconds
#
# Revision: 1
# Processed by: cddbd v1.4PL0 Copyright (c) Steve Scherf et al.
# Submitted via: audiograbber 1.81.03
#
DISCID=9c09b00a
DTITLE=The Pontiax - 100 Miles To Go
DYEAR=1990
DGENRE=Blues
TTITLE0=Night Creeper
TTITLE1=My Kinda Woman
TTITLE2=100 Miles To Go
TTITLE3=Lip Service
TTITLE4=Gonna Find Someone New
TTITLE5=Horn Of Plenty
TTITLE6=Long As I Have You
TTITLE7=Walkin' Downtown
TTITLE8=Let It All Fall Dead
TTITLE9=I'm Sorry About That
EXTD=
EXTT0=
EXTT1=
EXTT2=
EXTT3=
EXTT4=
EXTT5=
EXTT6=
EXTT7=
EXTT8=
EXTT9=
PLAYORDER=
